# xmcd
#
# Track frame offsets:
#	150
#	17650
#	33278
#	53527
#	71233
#	85591
#	99650
#	117722
#	134706
#	151285
#
# Disc length: 2233 seconds
#
# Revision: 0
# Processed by: cddbd v1.4PL0 Copyright (c) Steve Scherf et al.
# Submitted via: dBpowerAMP V4.0
#
DISCID=8308b70a
DTITLE=Blake Shelton - The Dreamer
DYEAR=1900
DGENRE=Country
TTITLE0=Underneath The Same Moon
TTITLE1=Heavy Liftin'
TTITLE2=Playboys Of The Southwestern World
TTITLE3=The Baby
TTITLE4=In My Heaven
TTITLE5=Georgia In A Jug
TTITLE6=The Dreamer
TTITLE7=My Neck Of The Woods
TTITLE8=Asphalt Cowboy
TTITLE9=Some Day
EXTD=
EXTT0=
EXTT1=
EXTT2=
EXTT3=
EXTT4=
EXTT5=
EXTT6=
EXTT7=
EXTT8=
EXTT9=
PLAYORDER=
